<?xml version="1.0" standalone="no"?>
<svg viewBox="0 0 200 200" xmlns="http://www.w3.org/2000/svg">
  <path fill="#24A148" d="M42.9,-75.7C56,-66.8,67.3,-56.1,74.5,-43.1C81.6,-30.2,84.8,-15.1,85,0.1C85.2,15.4,82.6,30.8,75.6,44.1C68.7,57.4,57.4,68.7,44.1,76.2C30.8,83.6,15.4,87.3,0,87.3C-15.3,87.2,-30.6,83.4,-43.8,75.8C-56.9,68.2,-67.8,56.9,-76.5,43.6C-85.1,30.3,-91.4,15.2,-91.8,-0.2C-92.2,-15.6,-86.8,-31.3,-78.3,-44.8C-69.8,-58.3,-58.2,-69.6,-44.7,-78.2C-31.1,-86.8,-15.6,-92.7,-0.3,-92.2C14.9,-91.6,29.8,-84.6,42.9,-75.7Z" transform="translate(100 100)" />
</svg>
